HIERARCHY
ROOT Hips
{
  OFFSET -331.093 83.8371 -317.828
  CHANNELS 6 Xposition Yposition Zposition Zrotation Xrotation Yrotation
  JOINT LeftUpLeg
  {
    OFFSET 8.64259 1.95398 -2.38835
    CHANNELS 3 Zrotation Xrotation Yrotation
    JOINT LeftLeg
    {
      OFFSET 43.7702 0 0
      CHANNELS 3 Zrotation Xrotation Yrotation
      JOINT LeftFoot
      {
        OFFSET 40.6238 0 0
        CHANNELS 3 Zrotation Xrotation Yrotation
        JOINT LeftToeBase
        {
          OFFSET 12.7242 0 0
          CHANNELS 3 Zrotation Xrotation Yrotation
          End Site
          {
            OFFSET 0 0 0
          }
        }
      }
    }
  }
  JOINT RightUpLeg
  {
    OFFSET -8.2249 1.95398 -2.59336
    CHANNELS 3 Zrotation Xrotation Yrotation
    JOINT RightLeg
    {
      OFFSET 43.5653 0 0
      CHANNELS 3 Zrotation Xrotation Yrotation
      JOINT RightFoot
      {
        OFFSET 40.6238 0 0
        CHANNELS 3 Zrotation Xrotation Yrotation
        JOINT RightToeBase
        {
          OFFSET 12.7242 0 0
          CHANNELS 3 Zrotation Xrotation Yrotation
          End Site
          {
            OFFSET 0 0 0
          }
        }
      }
    }
  }
  JOINT Spine
  {
    OFFSET 0.165834 0.87714 6.61349
    CHANNELS 3 Zrotation Xrotation Yrotation
    JOINT Spine1
    {
      OFFSET 7.38963 1.71661e-005 0
      CHANNELS 3 Zrotation Xrotation Yrotation
      JOINT Spine2
      {
        OFFSET 11.9445 1.14441e-005 0
        CHANNELS 3 Zrotation Xrotation Yrotation
        JOINT Spine3
        {
          OFFSET 14.7254 4.19617e-005 0
          CHANNELS 3 Zrotation Xrotation Yrotation
          JOINT Spine4
          {
            OFFSET 10.9679 0 0
            CHANNELS 3 Zrotation Xrotation Yrotation
            JOINT RightShoulder
            {
              OFFSET 2.46616 -1.6653 3.69651
              CHANNELS 3 Zrotation Xrotation Yrotation
              JOINT RightArm
              {
                OFFSET 13.0012 0 0
                CHANNELS 3 Zrotation Xrotation Yrotation
                JOINT RightForeArm
                {
                  OFFSET 28.7848 1.62311e-005 0
                  CHANNELS 3 Zrotation Xrotation Yrotation
                  JOINT RightHand
                  {
                    OFFSET 26.5688 1.62095e-005 0
                    CHANNELS 3 Zrotation Xrotation Yrotation
                    End Site
                    {
                      OFFSET 0 0 0
                    }
                  }
                }
              }
            }
            JOINT LeftShoulder
            {
              OFFSET 2.38034 -1.29275 -3.7523
              CHANNELS 3 Zrotation Xrotation Yrotation
              JOINT LeftArm
              {
                OFFSET 16.3182 6.07031e-005 0
                CHANNELS 3 Zrotation Xrotation Yrotation
                JOINT LeftForeArm
                {
                  OFFSET 27.0901 0 0
                  CHANNELS 3 Zrotation Xrotation Yrotation
                  JOINT LeftHand
                  {
                    OFFSET 24.5451 1.51738e-005 0
                    CHANNELS 3 Zrotation Xrotation Yrotation
                    End Site
                    {
                      OFFSET 0 0 0
                    }
                  }
                }
              }
            }
            JOINT Neck
            {
              OFFSET 5.0226 -0.0266342 0
              CHANNELS 3 Zrotation Xrotation Yrotation
              JOINT Head
              {
                OFFSET 6.69364 2.86102e-005 0
                CHANNELS 3 Zrotation Xrotation Yrotation
                End Site
                {
                  OFFSET 0 0 0
                }
              }
            }
          }
        }
      }
    }
  }
}
MOTION
Frames:	18
Frame Time:	0.0416667
52.3083 92.794 2.66386 117.499 -83.6432 121.057 -175.65 -3.68911 87.0728 -41.1815 14.2338 1.46064 68.237 7.53557 5.48004 46.9672 18.2129 8.40933 -178.521 26.5707 91.4189 -31.3359 -19.1947 -5.42849 63.625 -1.68802 -0.943783 57.3956 -4.49868 -10.2203 -1.15283 7.85982 -90.6197 11.1497 -2.58261 -0.984481 -0.518896 -2.62343 -0.86981 -23.0672 -2.16731 -1.71537 -3.05454 -2.16732 -1.71538 90.5878 -42.601 -101.305 31.9696 -7.26014 14.6058 -9.47212 -8.72896 -42.5879 -9.6575 -0.67383 2.7066 -98.6901 -49.4428 66.2432 -16.6553 7.69132 -0.567109 4.33401 5.61326 -41.4537 15.5651 1.1076 3.20747 -1.24671 13.2472 4.17974 0.0800753 12.7228 9.15593 
53.6918 92.2645 11.2898 113.467 -81.3973 118.277 -171.427 4.03721 90.8969 -56.6535 12.3193 0.211517 58.7854 0.16704 4.12156 37.3367 15.8485 23.5088 -179.111 24.8764 92.9476 -40.3634 -14.2345 -5.74113 68.109 -3.4491 -2.04273 51.0643 -1.824 -4.38282 -0.978726 7.94988 -90.8995 10.9553 -2.36473 -1.56429 -0.714316 -2.43128 -1.45868 -23.2527 -1.78538 -2.20263 -3.24007 -1.78538 -2.20263 90.2999 -42.2337 -101.884 32.356 -6.35889 12.6868 -7.43834 -7.13006 -39.0436 -11.0674 -0.828027 3.51744 -99.3373 -50.0112 65.5055 -17.8627 8.43854 -0.761378 4.00579 6.15038 -39.8725 15.1655 1.09438 3.30166 -2.07222 13.6557 4.1654 1.06065 13.2508 9.75703 
55.6191 93.7992 18.8817 103.875 -78.1243 107.234 -168.063 14.4173 90.3322 -60.1106 9.63152 -1.94461 57.2293 -0.668985 4.98569 38.5066 17.1903 23.3458 179.351 18.799 91.4768 -38.882 -11.5722 -6.33646 70.7154 -4.77671 -2.68594 43.7072 -0.485901 -0.8719 -0.707924 7.93452 -90.7312 10.9939 -1.74794 -1.288 -0.67648 -1.80294 -1.20983 -23.2122 -1.2801 -1.75374 -3.19954 -1.2801 -1.75375 90.0718 -42.1649 -102.284 33.5839 -6.78796 11.2061 -6.91463 -6.79285 -38.9018 -11.44 -0.910385 4.14589 -99.9451 -50.4098 64.7756 -19.6735 9.32033 -0.347236 5.31359 9.86268 -37.9334 14.2158 1.07612 3.62005 -2.79877 12.0085 4.03997 3.21624 11.7703 8.23645 
58.2484 95.3653 26.3918 94.1239 -73.5678 96.1851 -167.66 23.3771 88.4975 -51.0824 5.42129 -4.30272 60.8338 0.445415 1.42955 40.6208 19.0412 22.2137 177.445 11.95 90.2264 -33.8403 -8.42024 -7.0647 72.14 -5.05724 -2.81505 40.3967 -0.664517 -2.05098 -0.375226 7.78038 -90.4701 11.3101 -0.965754 -0.840488 -0.360746 -1.0018 -0.797168 -22.8953 -0.668519 -1.09186 -2.8827 -0.668516 -1.09186 89.9409 -42.0311 -102.54 34.2573 -9.71533 10.967 -7.9728 -9.09388 -41.8579 -11.1446 -0.833531 3.45742 -99.5176 -49.9292 65.2171 -22.4871 10.5071 1.5444 5.73563 12.6523 -35.9931 13.1331 1.05261 3.99672 -4.07474 8.844 1.46927 5.37882 9.13308 8.53837 
61.2483 95.9781 34.0307 88.776 -69.5184 90.1124 -170.031 28.5369 87.9518 -34.0636 -1.88158 -5.03137 62.1893 1.16543 0.372164 39.3518 17.5962 22.2425 174.399 5.23783 88.7786 -28.5961 -7.11796 -6.46802 72.9105 -5.23111 -2.87267 41.7909 -1.12544 -3.80689 0.00485995 7.6284 -90.2172 11.6157 -0.0919131 -0.422894 -0.0553046 -0.11043 -0.418442 -22.5899 0.0394274 -0.430964 -2.57727 0.0394331 -0.430965 90.6447 -40.7046 -101.725 34.8837 -11.897 10.9515 -9.87896 -9.35524 -46.5912 -10.1314 -0.657721 2.10894 -98.2327 -49.6363 66.9722 -25.194 11.408 5.9107 6.59291 14.0917 -37.0311 13.4265 1.14608 4.51616 -3.48216 6.04874 0.46191 5.84531 6.37475 6.73492 
64.9821 95.1726 41.5595 84.6364 -67.7796 86.8969 -176.157 29.6913 91.2251 -11.6076 -2.76876 -2.40806 58.9657 1.24865 1.10548 38.4253 16.6088 22.3733 171.447 0.0648738 87.1974 -25.8691 -8.4142 -4.93796 73.3727 -5.81499 -3.07723 45.2288 -1.55071 -4.72982 0.466143 7.5558 -90.1164 11.7637 0.872535 -0.324075 0.0929597 0.857422 -0.36218 -22.4445 0.929588 -0.0468443 -2.4318 0.929574 -0.0468467 90.318 -39.5283 -102.612 32.4663 -14.5735 9.50566 -10.169 -9.33629 -50.0307 -10.9571 -0.668334 1.58326 -97.1592 -49.5342 68.505 -26.9887 9.02465 9.77743 7.36896 15.6571 -36.6503 11.3566 0.89772 3.82354 -1.47502 3.70225 1.09853 5.46696 3.6889 2.69507 
69.4912 93.6882 49.5763 83.2897 -68.6932 86.5203 -178.639 32.9897 95.1443 -7.61484 2.18399 -0.828088 60.9078 1.83981 2.15909 39.3842 16.4501 19.8922 170.238 -4.40783 86.1639 -26.6246 -12.167 -5.53297 71.5865 -5.53915 -3.00873 51.0242 -2.90997 -7.76733 0.919586 7.52337 -89.9639 11.8295 1.8457 -0.124638 0.159888 1.83842 -0.205786 -22.3854 1.7978 0.436025 -2.37277 1.7978 0.436009 90.5494 -37.9468 -102.673 31.1168 -16.6165 6.43375 -11.0091 -11.3714 -50.0879 -12.0403 -0.801886 2.32292 -96.2999 -49.5894 69.7796 -27.8458 6.38003 14.3985 7.31992 16.5572 -35.0749 10.3051 0.77594 3.41813 0.0246659 2.72372 -0.738966 4.62587 2.96899 3.22097 
75.9984 92.277 58.3591 82.8012 -67.5711 84.5427 -176.45 35.3869 93.1379 -17.1585 2.38645 -2.41984 55.2617 -2.92677 0.420016 35.8411 10.4734 14.8832 169.767 -6.43215 82.5527 -32.9404 -15.9677 -8.27083 65.6137 -2.1966 -1.44469 53.7515 -3.30744 -8.06464 1.0248 7.4368 -89.5891 11.9989 2.23154 0.57799 0.329796 2.25482 0.479166 -22.2171 1.95462 1.22214 -2.20441 1.95461 1.22214 90.8498 -38.411 -102.009 30.1933 -15.9 5.7172 -11.5552 -12.304 -48.4952 -11.8349 -0.814547 2.55762 -96.6754 -49.8213 69.3049 -27.9696 5.14757 17.2469 6.47137 19.569 -30.9809 10.1235 0.907102 4.72137 0.535157 1.36695 -1.30103 3.27276 1.61203 1.6576 
83.2374 92.1494 66.732 84.3035 -62.745 83.3381 -174.045 36.1545 87.2009 -30.1955 8.28759 -4.30432 55.9229 -2.72778 2.83137 37.0918 6.89091 1.80609 172.699 -2.36046 80.8039 -45.4397 -10.0505 -9.1263 49.4121 5.13036 3.99176 39.598 -2.01297 -10.0407 0.781847 7.43747 -89.2112 11.9848 1.92651 1.36427 0.314682 1.98468 1.27814 -22.2216 1.4275 1.88015 -2.20897 1.4275 1.88014 90.7065 -39.1957 -102.035 31.5175 -14.1398 7.75534 -11.2591 -12.2007 -46.5659 -12.32 -0.906218 3.29836 -97.1315 -49.664 68.5873 -27.3056 5.23138 15.5121 4.79311 22.3422 -25.9192 6.83499 0.600469 4.16432 0.365723 -0.132199 -1.64618 2.12608 0.123014 0.605816 
89.8784 93.3931 74.0871 86.7875 -59.6674 84.8676 -174.271 31.2626 84.1023 -35.1408 9.48888 -4.1727 61.1021 1.4777 5.18166 33.2997 2.46688 -3.28658 176.909 6.65889 82.2233 -62.0515 -4.3837 -7.79376 45.9531 5.91318 4.74647 27.1646 -1.36561 -12.9308 0.55079 7.53416 -89.2248 11.7944 1.45975 1.39068 0.123605 1.51954 1.32508 -22.4089 0.974372 1.76502 -2.39629 0.974379 1.76503 90.8341 -38.6139 -101.977 32.8349 -14.7019 7.84353 -10.7116 -13.0941 -44.2036 -8.46037 -0.619415 2.73221 -97.7371 -49.5456 67.6651 -27.0265 5.85416 13.615 4.98241 19.3683 -28.0036 5.52452 0.418025 3.01186 -0.560011 -0.594999 -0.718595 2.09681 -0.470766 0.555843 
95.9238 95.3576 81.017 88.0634 -56.5772 86.7802 -176.439 23.8927 83.2166 -33.7843 8.72642 -2.35704 63.8182 3.09264 4.73621 34.0979 2.6862 -4.53434 179.477 17.5916 86.599 -68.1832 -1.26409 -6.04822 53.6389 2.45872 1.58685 33.8773 -1.55377 -8.93154 0.319452 7.5947 -89.4439 11.6795 0.896271 1.01464 0.00850471 0.940067 0.974215 -22.5246 0.549919 1.23708 -2.51194 0.549911 1.23707 91.0289 -39.3148 -101.44 33.299 -15.083 8.4249 -10.6818 -13.6413 -43.4186 -7.35158 -0.520784 2.21353 -98.1152 -49.6769 67.1587 -25.3064 7.55584 10.0108 6.44782 16.209 -33.7222 8.81781 0.653564 3.21443 -1.5447 -0.883393 0.257757 2.13863 -0.887738 0.488002 
101.815 96.9667 87.6199 87.86 -53.0439 87.898 -177.657 16.4587 83.4107 -30.0352 9.68301 -1.12466 65.0675 3.61827 4.50155 36.3024 4.44695 -3.81734 179.552 25.2563 90.0365 -58.7981 0.889354 -4.70262 61.9793 -1.1559 -0.863543 38.055 -1.8541 -8.37444 0.00257529 7.54788 -89.7071 11.7775 0.142763 0.568937 0.106392 0.167654 0.562092 -22.4277 -0.0348128 0.585541 -2.41506 -0.0348298 0.585532 91.3232 -39.3424 -100.921 34.9111 -15.23 9.71037 -10.7103 -13.4074 -43.7852 -6.48128 -0.467947 2.1724 -97.8123 -49.181 67.4302 -23.5044 7.46548 5.93938 8.88875 13.2988 -40.7008 11.7939 1.0572 4.86927 -3.00144 -0.674409 0.673689 2.62059 -0.700324 1.11368 
107.546 97.2767 94.4376 86.9525 -48.9178 87.6683 -177.706 10.1264 83.54 -27.9529 9.53088 -0.46537 69.6132 4.76522 1.30489 33.7458 3.65898 -0.0511754 178.309 27.6881 90.9412 -35.6182 2.28705 -2.94145 62.6552 -2.08491 -1.18037 40.0915 -2.52178 -10.5117 -0.37381 7.48104 -89.8401 11.9126 -0.667958 0.390656 0.241736 -0.650126 0.419669 -22.2946 -0.754495 0.171827 -2.282 -0.75449 0.171831 91.445 -40.516 -100.399 35.2447 -14.3952 11.5208 -10.3952 -12.0827 -45.2848 -4.11443 -0.305698 1.38546 -97.373 -48.1799 67.7351 -20.7888 8.35537 1.09426 8.57414 8.76511 -45.8082 11.8841 0.791664 2.68036 -2.8088 -0.734628 -0.110728 2.147 -0.645534 1.91296 
113.372 96.2261 101.535 86.6474 -44.9722 86.6629 -177.321 3.61653 83.6741 -26.7643 13.6548 -0.359497 71.6212 8.31288 4.71009 38.4583 6.23442 -3.05585 177.149 27.6001 90.0258 -10.608 -1.13845 -2.32033 62.4436 -1.85437 -0.941707 44.7671 -3.12134 -10.7377 -0.700771 7.43107 -89.8157 12.0152 -1.30622 0.509878 0.344786 -1.28251 0.566877 -22.1956 -1.39906 0.093665 -2.1829 -1.39907 0.0936559 91.3646 -41.6362 -100.25 35.3489 -13.7325 13.5788 -10.3671 -11.2663 -45.976 -4.91927 -0.339648 1.24393 -96.9283 -47.3809 68.1242 -17.7858 9.2947 -4.1368 9.38872 7.12517 -49.9883 12.3544 0.77466 2.31704 -2.03536 -1.04021 -0.660136 1.39231 -0.893169 1.85167 
119.706 94.2933 109.405 87.9357 -42.554 86.2738 -176.564 -3.31487 84.257 -26.9829 20.2186 -0.305598 66.3265 9.08065 12.1425 59.3722 14.5583 -15.9621 176.486 29.7288 89.2056 -7.23254 -2.29122 -1.87644 65.4957 -2.69564 -1.41628 47.4896 -2.84634 -8.68027 -0.939218 7.49487 -89.7374 11.8906 -1.74401 0.710832 0.22054 -1.71104 0.786908 -22.3238 -1.877 0.153647 -2.3112 -1.87699 0.153648 90.8135 -42.4737 -100.961 34.6726 -13.029 14.7449 -11.3836 -12.0818 -46.24 -4.64982 -0.341658 1.63125 -97.0186 -47.3197 67.9682 -16.0907 7.49025 -6.6304 10.125 5.85324 -53.6042 11.6623 0.714839 2.16582 -0.634471 -1.26419 -1.58441 -0.0259973 -0.98041 3.33256 
126.854 92.6167 118.427 90.5237 -41.4781 90.3335 -174.962 -9.31961 89.1999 -32.3595 24.439 1.47725 67.6231 6.94332 4.8791 51.2208 19.6427 3.87589 177.744 30.0185 91.5041 -19.6674 -0.0644611 -1.98568 61.0597 -0.945783 -0.472561 44.0166 -3.12882 -11.1137 -1.03873 7.55574 -90.0981 11.7709 -2.11191 0.028612 0.101689 -2.10862 0.121576 -22.447 -2.02281 -0.607682 -2.43435 -2.02283 -0.607687 91.1651 -42.9564 -100.252 33.6964 -12.7491 14.2444 -11.0208 -13.414 -43.3108 -4.32746 -0.338435 2.01063 -97.7087 -48.2936 67.2774 -16.9554 4.76031 -5.21763 10.2098 5.89511 -53.6914 13.2715 0.856848 2.51801 -0.254677 -0.947178 -1.283 -1.74923 -0.754491 4.17993 
133.899 92.0962 127.363 92.3459 -41.8361 95.033 -173.273 -7.46372 94.3323 -42.6792 23.52 2.77866 54.5677 -4.79181 -3.61925 38.2007 12.466 13.9145 178.387 31.0031 96.086 -36.0732 0.197439 -2.04084 62.7125 -0.540834 -0.397659 35.4473 -1.64385 -8.29822 -0.953643 7.50366 -90.6185 11.8541 -2.18734 -0.999974 0.184672 -2.22921 -0.902712 -22.3577 -1.78571 -1.61123 -2.34509 -1.78569 -1.61122 91.1261 -42.7175 -100.38 33.0777 -11.8338 13.133 -9.98532 -14.3296 -39.2963 -4.31471 -0.360446 3.16093 -98.8821 -49.8701 66.1133 -18.7315 4.74261 -1.46873 9.12659 7.04405 -49.2298 14.6601 0.959049 2.63113 -0.428273 -0.9456 -0.857461 -3.39062 -0.89156 5.9827 
140.011 93.2317 135.001 93.6644 -41.5457 96.3134 -173.316 2.48 96.3191 -58.9378 19.0974 2.85009 48.8275 -8.30978 -3.52594 27.8167 3.46951 18.0145 177.496 25.1566 98.1133 -39.789 1.36038 -2.01213 68.8433 -2.72354 -1.71566 29.1867 -0.42372 -3.42223 -0.807597 7.53049 -90.6401 11.8028 -1.90688 -1.07329 0.132908 -1.95228 -0.988307 -22.4062 -1.49619 -1.59679 -2.3936 -1.49618 -1.59678 91.1518 -41.6028 -100.618 34.5952 -10.7729 11.248 -9.72249 -13.8596 -37.9314 -4.28451 -0.367361 3.6158 -99.6192 -50.2411 65.1826 -19.5557 7.91526 -0.101438 7.46469 10.1618 -41.7262 12.5333 0.843158 2.7561 -1.21551 -1.95905 -0.282501 -2.6254 -1.92734 3.46064 
